<svg width="34" height="34" viewBox="0 0 34 34" fill="none" xmlns="http://www.w3.org/2000/svg">
<rect x="1" y="1" width="32" height="32" rx="16" stroke="#EFEFF1" stroke-width="2"/>
<circle cx="17" cy="17" r="16" fill="#1A2032"/>
<path d="M28.4284 24.2339H21.3536L18.2728 29.5725V25.129L20.0866 21.9857H24.5663L16.9999 8.87361L9.43338 21.9857H13.9131L15.7269 25.129V29.5725L12.6461 24.2339H5.57129L16.9994 4.42969L28.4284 24.2339Z" fill="url(#paint0_linear_7070_212744)"/>
<path d="M10.6652 20V13.4099H11.4901L15.0113 17.8979V13.4099H16.1289V20H15.2863L11.765 15.4588V20H10.6652ZM17.811 14.3057C18.4318 13.673 19.2242 13.3567 20.188 13.3567C21.1459 13.3567 21.9353 13.673 22.5562 14.3057C23.1771 14.9384 23.4875 15.7397 23.4875 16.7094C23.4875 17.6791 23.1771 18.4803 22.5562 19.113C21.9353 19.7398 21.1459 20.0532 20.188 20.0532C19.2242 20.0532 18.4289 19.7398 17.8021 19.113C17.1812 18.4803 16.8708 17.6791 16.8708 16.7094C16.8708 15.7397 17.1842 14.9384 17.811 14.3057ZM17.9795 16.7094C17.9795 17.4071 18.1835 17.9748 18.5915 18.4123C18.9995 18.844 19.5317 19.0598 20.188 19.0598C20.8325 19.0598 21.3558 18.844 21.7579 18.4123C22.1659 17.9748 22.3699 17.4071 22.3699 16.7094C22.3699 16.0117 22.1659 15.444 21.7579 15.0064C21.3558 14.563 20.8325 14.3412 20.188 14.3412C19.5317 14.3412 18.9995 14.56 18.5915 14.9976C18.1835 15.4351 17.9795 16.0057 17.9795 16.7094Z" fill="white"/>
<defs>
<linearGradient id="paint0_linear_7070_212744" x1="16.9999" y1="4.42969" x2="16.9999" y2="29.5725" gradientUnits="userSpaceOnUse">
<stop stop-color="#E1033B"/>
<stop offset="0.423077" stop-color="#1A2032"/>
<stop offset="0.677885" stop-color="#1A2032"/>
<stop offset="1" stop-color="#E1033B"/>
</linearGradient>
</defs>
</svg>
