<svg width="34" height="34" viewBox="0 0 34 34" fill="none" xmlns="http://www.w3.org/2000/svg">
<rect x="1" y="1" width="32" height="32" rx="16" stroke="#EFEFF1" stroke-width="2"/>
<circle cx="17" cy="17" r="16" fill="#1A2032"/>
<path d="M28.4284 24.2339H21.3536L18.2728 29.5725V25.129L20.0866 21.9857H24.5663L16.9999 8.87361L9.43338 21.9857H13.9131L15.7269 25.129V29.5725L12.6461 24.2339H5.57129L16.9994 4.42969L28.4284 24.2339Z" fill="url(#paint0_linear_7070_197100)"/>
<path d="M7.41393 12.4933L9.57846 15.7568L11.7542 12.4933H13.201L10.2402 16.7741V20.3661H8.83826V16.7741L5.87744 12.4933H7.41393Z" fill="white"/>
<path d="M13.9257 12.4933H19.5445V13.627H15.3164V15.8628H19.3763V16.9648H15.3164V19.2323H19.7127V20.3661H13.9257V12.4933Z" fill="white"/>
<path d="M21.5366 18.0562C22.0525 18.9039 22.7404 19.3277 23.6002 19.3277C24.0638 19.3277 24.4264 19.2323 24.6881 19.0416C24.9498 18.8438 25.0806 18.5754 25.0806 18.2363C25.0806 17.9537 24.9984 17.7383 24.8339 17.59C24.6694 17.4345 24.3516 17.2827 23.8806 17.1343L22.703 16.7635C21.4469 16.3679 20.8188 15.6368 20.8188 14.5701C20.8188 13.9273 21.0618 13.4116 21.5478 13.0231C22.0413 12.6275 22.688 12.4297 23.4881 12.4297C24.8114 12.4297 25.7199 12.9454 26.2134 13.9767L25.1815 14.5807C24.9572 14.1922 24.718 13.9202 24.4638 13.7648C24.217 13.6094 23.903 13.5317 23.5217 13.5317C23.103 13.5317 22.774 13.6164 22.5348 13.786C22.303 13.9555 22.1871 14.1886 22.1871 14.4853C22.1871 15.0151 22.5609 15.4001 23.3086 15.6403L24.3516 15.9582C25.1143 16.1913 25.6526 16.4809 25.9666 16.827C26.2881 17.1732 26.4489 17.6394 26.4489 18.2257C26.4489 18.8968 26.1909 19.4337 25.675 19.8363C25.1666 20.2319 24.475 20.4297 23.6002 20.4297C22.0974 20.4297 21.0581 19.8328 20.4824 18.639L21.5366 18.0562Z" fill="white"/>
<defs>
<linearGradient id="paint0_linear_7070_197100" x1="16.9999" y1="4.42969" x2="16.9999" y2="29.5725" gradientUnits="userSpaceOnUse">
<stop stop-color="#5BAB44"/>
<stop offset="0.423077" stop-color="#1A2032"/>
<stop offset="0.677885" stop-color="#1A2032"/>
<stop offset="1" stop-color="#5BAB44"/>
</linearGradient>
</defs>
</svg>
